<svg xmlns="http://www.w3.org/2000/svg" version="1.1" xmlns:xlink="http://www.w3.org/1999/xlink" xmlns:svgjs="http://svgjs.dev/svgjs" width="1000" height="1000" viewBox="0 0 1000 1000"><rect width="1000" height="1000" fill="#ffffff"></rect><g transform="matrix(0.7,0,0,0.7,149.57575757575756,282.1265587044535)"><svg viewBox="0 0 396 247" data-background-color="#ffffff" preserveAspectRatio="xMidYMid meet" height="623" width="1000" xmlns="http://www.w3.org/2000/svg" xmlns:xlink="http://www.w3.org/1999/xlink"><g id="tight-bounds" transform="matrix(1,0,0,1,0.2400000000000091,-0.09999999999999432)"><svg viewBox="0 0 395.52 247.2" height="247.2" width="395.52"><g><svg></svg></g><g><svg viewBox="0 0 395.52 247.2" height="247.2" width="395.52"><g transform="matrix(1,0,0,1,75.54432,89.8555915993467)"><svg viewBox="0 0 244.43135999999998 67.4888168013066" height="67.4888168013066" width="244.43135999999998"><g><svg viewBox="0 0 244.43135999999998 67.4888168013066" height="67.4888168013066" width="244.43135999999998"><g><svg viewBox="0 0 244.43135999999998 67.4888168013066" height="67.4888168013066" width="244.43135999999998"><g><svg viewBox="0 0 244.43135999999998 67.4888168013066" height="67.4888168013066" width="244.43135999999998"><g><svg viewBox="0 0 244.43135999999998 67.4888168013066" height="67.4888168013066" width="244.43135999999998"><g><svg viewBox="0 0 244.43135999999998 46.95130896391152" height="46.95130896391152" width="244.43135999999998"><g transform="matrix(1,0,0,1,0,0)"><svg width="244.43135999999998" viewBox="-8.010000228881836 -57.7599983215332 377.4700012207031 72.50999450683594" height="46.95130896391152" data-palette-color="#374151"><path d="M47.66-46.53L47.66-46.53Q47.27-46.29 46.83-46.24 46.39-46.19 45.92-46.12 45.46-46.04 45.07-45.9 44.68-45.75 44.48-45.36L44.48-45.36Q43.99-45.85 43.41-46.19 42.82-46.53 42.24-46.92L42.24-46.92Q41.75-46.78 41.26-46.53 40.77-46.29 40.28-46.29L40.28-46.29Q39.94-46.29 39.6-46.53L39.6-46.53Q39.21-46.24 38.7-46.07 38.18-45.9 37.62-45.75 37.06-45.61 36.6-45.36 36.13-45.12 35.94-44.63L35.94-44.63Q35.84-44.87 35.47-44.78 35.11-44.68 35.06-45.02L35.06-45.02Q33.5-44.48 31.88-44.09 30.27-43.7 28.66-43.26 27.05-42.82 25.49-42.29 23.93-41.75 22.46-40.97L22.46-40.97Q22.41-40.92 22.41-40.82L22.41-40.82Q22.41-40.33 22.56-39.89 22.71-39.45 22.8-39.06L22.8-39.06Q21.92-36.08 21.63-33.01 21.34-29.93 20.85-26.95L20.85-26.95 20.85-26.76Q20.85-26.51 21.04-26.39 21.24-26.27 21.24-25.98L21.24-25.98 21.19-25.88Q20.95-25.73 20.85-25.46 20.75-25.2 20.75-24.9L20.75-24.9Q20.75-24.71 20.85-24.32L20.85-24.32Q20.02-21.53 19.75-18.65 19.48-15.77 19.09-12.89L19.09-12.89 18.65-9.67Q18.55-9.38 18.48-9.11 18.41-8.84 18.41-8.54L18.41-8.54Q18.41-6.98 18.63-5.49 18.85-4 18.75-2.44L18.75-2.44Q19.19-1.76 19.19-1.12L19.19-1.12Q19.19-0.88 19.17-0.63 19.14-0.39 19.09-0.15L19.09-0.15Q19.73 0.49 20.58 0.76 21.44 1.03 22.12 1.61L22.12 1.61 22.12 1.81Q22.12 2.29 21.97 2.76 21.83 3.22 21.73 3.71L21.73 3.71Q21.63 4.1 21.51 4.83 21.39 5.57 21.19 5.81L21.19 5.81Q20.95 6.15 20.48 6.42 20.02 6.69 19.58 6.69L19.58 6.69Q19.43 6.69 19.17 6.54 18.9 6.4 18.75 6.3L18.75 6.3Q18.51 6.3 18.12 6.54 17.72 6.79 17.33 6.79L17.33 6.79Q17.14 6.79 16.99 6.76 16.85 6.74 16.65 6.64L16.65 6.64Q16.46 6.15 16.09 5.79 15.72 5.42 15.23 5.08L15.23 5.08Q15.28 4.39 14.99 4.05 14.7 3.71 14.4 3.17L14.4 3.17Q14.31 2.49 14.23 1.61 14.16 0.73 13.48 0.34L13.48 0.34Q13.72 0 13.72-0.59L13.72-0.59Q13.72-0.83 13.65-1.12 13.57-1.42 13.33-1.56L13.33-1.56 13.33-1.66Q13.28-1.9 13.5-2.03 13.72-2.15 13.72-2.39L13.72-2.39 13.72-2.59Q13.38-4.15 13.38-5.86L13.38-5.86Q13.38-7.47 13.48-9.06 13.57-10.64 13.48-12.26L13.48-12.26Q13.77-12.5 13.94-13.04 14.11-13.57 14.21-14.21 14.31-14.84 14.33-15.45 14.36-16.06 14.4-16.46L14.4-16.46Q14.65-19.24 15.19-21.95 15.72-24.66 15.82-27.49L15.82-27.49Q16.06-27.88 16.11-28.52 16.16-29.15 16.16-29.86 16.16-30.57 16.26-31.25 16.36-31.93 16.65-32.42L16.65-32.42Q16.65-33.79 16.89-35.18 17.14-36.57 17.14-37.99L17.14-37.99Q17.14-38.67 16.99-39.4L16.99-39.4Q16.5-39.6 16.11-39.6L16.11-39.6Q15.58-39.6 15.01-39.38 14.45-39.16 14.21-38.72L14.21-38.72Q13.13-38.67 12.11-38.38 11.08-38.09 10.06-38.09L10.06-38.09 9.57-38.09Q9.38-38.09 9.13-38.13L9.13-38.13Q8.79-37.99 8.42-37.89 8.06-37.79 8.11-37.3L8.11-37.3Q6.59-37.16 5.15-36.67 3.71-36.18 2.29-35.62 0.88-35.06-0.56-34.57-2-34.08-3.52-33.94L-3.52-33.94Q-4.05-33.69-4.2-32.91L-4.2-32.91Q-5.27-33.01-6.01-33.45-6.74-33.89-7.71-34.28L-7.71-34.28Q-8.01-35.3-8.01-36.23L-8.01-36.23Q-8.01-37.45-7.52-38.57-7.03-39.7-5.96-40.23L-5.96-40.23Q-5.71-40.19-5.52-40.16-5.32-40.14-5.08-40.14L-5.08-40.14Q-4.3-40.14-3.52-40.43-2.73-40.72-1.9-40.72L-1.9-40.72Q-1.66-40.72-1.37-40.58L-1.37-40.58Q-1.03-40.77-0.51-40.89 0-41.02 0.46-41.14 0.93-41.26 1.32-41.5 1.71-41.75 1.81-42.19L1.81-42.19Q2.05-41.99 2.34-41.94 2.64-41.89 2.93-41.89L2.93-41.89Q3.56-41.89 4.25-42.14 4.93-42.38 5.32-42.92L5.32-42.92Q5.66-42.53 6.3-42.53L6.3-42.53Q6.98-42.53 7.64-42.9 8.3-43.26 8.94-43.26L8.94-43.26Q9.42-43.26 9.67-42.92L9.67-42.92Q10.21-43.36 10.94-43.6 11.67-43.85 12.43-44.04 13.18-44.24 13.84-44.48 14.5-44.73 14.89-45.17L14.89-45.17Q15.14-45.12 15.67-45.12L15.67-45.12Q16.5-45.12 17.26-45.34 18.02-45.56 18.8-45.75L18.8-45.75 19.82-45.85Q20.21-45.9 20.53-46.09 20.85-46.29 21.19-46.44 21.53-46.58 21.9-46.68 22.27-46.78 22.8-46.73L22.8-46.73Q23.97-47.36 25.29-47.71 26.61-48.05 27.98-48.32 29.35-48.58 30.66-48.95 31.98-49.32 33.15-50.05L33.15-50.05 33.3-50.05Q34.28-50.05 35.23-50.39 36.18-50.73 37.01-51.32L37.01-51.32Q37.16-51.27 37.3-51.27L37.3-51.27 37.65-51.27Q39.01-51.27 40.31-51.66 41.6-52.05 43.02-52.05L43.02-52.05Q43.85-52.05 44.34-51.83 44.82-51.61 45.21-51.29 45.61-50.98 46.04-50.68 46.48-50.39 47.17-50.24L47.17-50.24Q47.61-49.41 47.61-48.46 47.61-47.51 47.66-46.53ZM69.09-3.56L69.09-3.56Q68.94-2.88 68.48-2.47 68.02-2.05 67.38-1.81 66.75-1.56 66.09-1.49 65.43-1.42 64.89-1.42L64.89-1.42Q64.65-1.42 64.43-1.44 64.21-1.46 63.96-1.46L63.96-1.46Q63.72-1.46 63.72-1.22 63.72-0.98 63.47-0.88L63.47-0.88Q63.23-0.98 62.99-1.03 62.74-1.07 62.5-1.07L62.5-1.07Q62.16-1.07 61.84-1.03 61.52-0.98 61.23-0.98L61.23-0.98Q60.84-0.98 60.67-1.07 60.5-1.17 60.37-1.29 60.25-1.42 60.13-1.56 60.01-1.71 59.76-1.81L59.76-1.81Q59.42-1.95 59.2-1.86 58.98-1.76 58.54-2.15L58.54-2.15Q57.96-2.64 57.54-3.34 57.13-4.05 56.74-4.83 56.35-5.62 55.91-6.4 55.47-7.18 54.88-7.76L54.88-7.76 54.49-7.76Q53.61-7.76 53.27-7.03L53.27-7.03Q53.02-7.18 52.78-7.4 52.54-7.62 52.24-7.76L52.24-7.76Q51.12-7.42 49.9-7.18 48.68-6.93 47.46-6.93L47.46-6.93 46.77-6.93Q46.48-6.93 46.14-7.03L46.14-7.03Q45.65-6.84 45.26-6.57 44.87-6.3 44.38-6.3L44.38-6.3Q44.09-6.3 43.7-6.49L43.7-6.49Q43.41-6.49 43.43-6.25 43.45-6.01 43.11-6.01L43.11-6.01 42.67-6.01Q41.99-6.01 41.33-5.96 40.67-5.91 39.99-5.91L39.99-5.91Q39.06-5.91 38.08-6.15L38.08-6.15Q37.84-6.01 37.55-6.01L37.55-6.01Q37.35-5.91 37.25-5.69 37.16-5.47 37.06-5.3 36.96-5.13 36.79-5 36.62-4.88 36.33-4.93L36.33-4.93Q36.23-4.35 35.84-4 35.45-3.66 35.45-2.98L35.45-2.98Q34.91-2.69 34.57-2.25 34.23-1.81 33.88-1.32 33.54-0.83 33.18-0.39 32.81 0.05 32.27 0.29L32.27 0.29Q32.03 0.59 32.13 1.22L32.13 1.22Q31.59 1.66 30.81 2 30.03 2.34 29.34 2.34L29.34 2.34Q27.93 2.34 27.39 0.83L27.39 0.83Q27.39 0.34 27.46-0.22 27.54-0.78 27.68-1.29 27.83-1.81 28.12-2.22 28.42-2.64 28.95-2.83L28.95-2.83Q28.95-3.27 28.66-3.44 28.37-3.61 28.42-4.05L28.42-4.05Q29.73-4.69 30.71-5.71 31.69-6.74 32.49-7.89 33.3-9.03 34.13-10.21 34.96-11.38 35.98-12.3L35.98-12.3 35.98-13.33Q37.45-14.89 37.89-16.85L37.89-16.85Q38.43-16.94 38.6-17.33 38.77-17.72 38.77-18.26L38.77-18.26Q39.01-18.26 39.08-18.48 39.16-18.7 39.5-18.6L39.5-18.6Q39.94-19.78 40.48-20.75 41.01-21.73 41.55-22.73 42.09-23.73 42.5-24.8 42.92-25.88 43.11-27.2L43.11-27.2Q43.8-27.25 43.87-27.86 43.94-28.47 44.04-28.96L44.04-28.96Q44.77-29.64 45.14-30.57 45.51-31.49 45.8-32.5 46.09-33.5 46.46-34.5 46.82-35.5 47.51-36.28L47.51-36.28 47.51-36.43Q47.51-36.67 47.31-36.74 47.12-36.82 47.12-37.06L47.12-37.06Q47.17-37.11 47.17-37.16L47.17-37.16Q47.75-37.4 48.04-37.96 48.34-38.53 48.92-38.77L48.92-38.77Q49.95-37.94 50.73-37.77 51.51-37.6 52.78-37.5L52.78-37.5Q53.42-36.82 53.49-35.86 53.56-34.91 53.81-33.98L53.81-33.98Q54.2-32.42 54.66-30.93 55.12-29.44 55.37-27.88L55.37-27.88Q55.52-26.95 55.91-26.12 56.3-25.29 56.44-24.41L56.44-24.41Q56.54-23.73 56.44-22.88 56.35-22.02 56.64-21.39L56.64-21.39 56.98-20.61Q57.22-20.07 57.39-19.48 57.57-18.9 57.71-18.31L57.71-18.31Q58.1-16.85 58.42-15.16 58.74-13.48 59.42-12.11L59.42-12.11Q59.67-11.62 60.18-11.43 60.69-11.23 61.33-11.16 61.96-11.08 62.57-11.11 63.18-11.13 63.62-11.13L63.62-11.13 64.11-11.13Q64.4-11.13 64.69-11.04L64.69-11.04Q64.89-10.64 64.89-10.35L64.89-10.35Q64.89-9.77 64.5-9.42 64.11-9.08 64.11-8.64L64.11-8.64Q64.11-8.4 64.3-8.11L64.3-8.11Q64.11-8.15 63.72-8.15L63.72-8.15Q62.6-8.15 61.52-7.76L61.52-7.76Q61.91-6.93 62.57-6.37 63.23-5.81 63.96-5.32L63.96-5.32Q64.45-5.71 64.99-5.71L64.99-5.71Q65.57-5.71 66.09-5.44 66.6-5.18 67.19-5.18L67.19-5.18Q67.62-5.18 67.82-5.32L67.82-5.32Q68.21-4.88 68.45-4.42 68.7-3.96 69.09-3.56ZM53.81-11.38L53.81-11.38Q53.71-12.21 53.49-12.57 53.27-12.94 53.12-13.48L53.12-13.48Q52.93-14.16 52.85-14.94 52.78-15.72 52.63-16.46L52.63-16.46Q52.29-18.12 51.88-19.78 51.46-21.44 50.83-23L50.83-23Q51.02-23.29 51.02-23.54L51.02-23.54 51.02-23.68Q50.58-24.17 50.39-24.88 50.19-25.59 50.02-26.29 49.85-27 49.58-27.61 49.31-28.22 48.73-28.61L48.73-28.61Q48.58-28.32 48.58-27.93L48.58-27.93Q48.58-27.59 48.65-27.29 48.73-27 48.73-26.66L48.73-26.66Q48.24-26.42 48.02-25.9 47.8-25.39 47.31-25.1L47.31-25.1Q46.92-23.54 46.19-22.14 45.46-20.75 44.65-19.38 43.85-18.02 43.11-16.63 42.38-15.23 41.94-13.72L41.94-13.72Q41.31-13.28 41.09-12.6 40.87-11.91 40.87-11.23L40.87-11.23Q41.31-10.99 41.87-10.96 42.43-10.94 42.97-10.94 43.5-10.94 43.99-10.84 44.48-10.74 44.87-10.35L44.87-10.35Q45.51-10.55 46.26-10.62 47.02-10.69 47.51-11.04L47.51-11.04Q48.48-10.69 49.61-10.69L49.61-10.69Q50.19-10.69 50.75-10.79 51.32-10.89 51.85-11.04L51.85-11.04Q52.29-10.94 52.54-10.72 52.78-10.5 53.27-10.55L53.27-10.55Q53.51-10.74 53.56-10.96 53.61-11.18 53.81-11.38ZM79.24-6.69L79.24-6.69Q79-6.3 78.66-5.98 78.32-5.66 78.02-5.32L78.02-5.32Q77.68-5.18 77.27-5.18 76.85-5.18 76.48-5.2 76.12-5.22 75.8-5.2 75.48-5.18 75.29-4.98L75.29-4.98Q74.9-5.08 74.7-5.35 74.51-5.62 74.02-5.66L74.02-5.66Q73.82-5.71 73.63-5.66L73.63-5.66Q72.9-6.49 72.29-7.42 71.67-8.35 71.14-9.18L71.14-9.18Q71.09-10.99 70.84-12.84L70.84-12.84Q70.8-13.28 70.7-13.72 70.6-14.16 70.55-14.55L70.55-14.55Q70.55-15.04 70.62-15.5 70.7-15.97 70.75-16.36L70.75-16.36Q70.94-17.77 71.19-19.14 71.43-20.51 71.63-21.92L71.63-21.92Q71.82-23.19 71.82-24.58 71.82-25.98 71.38-27.2L71.38-27.2 71.33-27.44Q71.43-27.83 71.55-28.1 71.67-28.37 71.72-28.71L71.72-28.71Q71.82-29.25 71.48-29.49L71.48-29.49Q71.63-29.88 71.97-30 72.31-30.13 72.36-30.57L72.36-30.57Q72.41-30.76 72.36-30.96L72.36-30.96Q72.75-31.1 73.16-31.23 73.58-31.35 73.97-31.25L73.97-31.25Q74.6-31.15 75.09-30.83 75.58-30.52 76.02-30.13L76.02-30.13Q76.8-27.78 76.66-25.17 76.51-22.56 76.17-19.92 75.83-17.29 75.73-14.77 75.63-12.26 76.51-10.11L76.51-10.11 76.61-10.06Q76.85-10.01 77-10.23 77.14-10.45 77.39-10.4L77.39-10.4Q77.58-10.3 77.63-10.3L77.63-10.3Q77.83-9.33 78.27-8.45 78.71-7.57 79.24-6.69ZM110.49-12.55L110.49-12.55Q110.49-12.01 110.1-11.74 109.71-11.47 109.71-11.04L109.71-11.04Q109.71-10.84 109.9-10.55L109.9-10.55Q109.22-10.55 108.98-10.11 108.73-9.67 108.49-9.13L108.49-9.13 107.85-9.13Q107.61-9.13 107.46-9.03 107.32-8.94 107.19-8.76 107.07-8.59 106.88-8.25L106.88-8.25Q105.95-8.06 105.1-7.64 104.24-7.23 103.43-6.76 102.63-6.3 101.8-5.83 100.97-5.37 100.09-5.08L100.09-5.08Q99.65-4.35 98.82-3.91L98.82-3.91 98.67-3.91Q98.43-3.86 98.26-3.98 98.09-4.1 97.84-4.1L97.84-4.1Q97.7-4.1 97.65-4.05L97.65-4.05Q96.18-3.08 94.38-3.08L94.38-3.08Q93.89-3.08 93.45-3.15 93.01-3.22 92.52-3.22L92.52-3.22Q92.38-3.22 92.33-3.13L92.33-3.13 92.23-2.93Q92.18-2.83 92.11-2.73 92.03-2.64 91.74-2.64L91.74-2.64Q91.2-2.64 90.67-2.78 90.13-2.93 89.54-2.83L89.54-2.83Q88.42-3.47 87.79-4.05 87.15-4.64 86.61-5.81L86.61-5.81Q86.37-6.35 85.95-6.84 85.54-7.32 85.34-7.91L85.34-7.91Q85.3-8.11 85.2-8.62 85.1-9.13 85-9.72 84.9-10.3 84.83-10.84 84.76-11.38 84.76-11.57L84.76-11.57Q84.76-12.16 84.83-12.72 84.9-13.28 85-13.87L85-13.87Q85.3-15.72 85.42-17.6 85.54-19.48 86.22-21.24L86.22-21.24Q86.13-21.78 86.13-22.27L86.13-22.27 86.13-23.34Q86.13-24.27 85.88-24.9L85.88-24.9Q86.27-25.54 86.27-26.32L86.27-26.32Q86.27-27.2 85.54-27.34L85.54-27.34 85.54-27.49Q85.54-28.52 84.86-29.1L84.86-29.1Q84.86-30.81 85.71-31.67 86.56-32.52 87.98-33.15L87.98-33.15Q88.18-33.45 88.13-33.64L88.13-33.64Q88.47-33.54 88.76-33.45 89.06-33.35 89.35-33.35L89.35-33.35Q89.84-33.35 90.23-33.5L90.23-33.5Q90.37-32.91 90.98-32.79 91.59-32.67 91.98-32.47L91.98-32.47 91.98-31.84Q91.98-30.32 92.72-28.96L92.72-28.96Q92.52-28.56 92.47-28.13 92.42-27.69 92.42-27.29L92.42-27.29Q92.42-26.71 92.47-26.12 92.52-25.54 92.52-25L92.52-25Q92.52-24.41 92.4-23.83 92.28-23.24 91.84-22.8L91.84-22.8Q91.79-22.17 91.76-21.36 91.74-20.56 91.67-19.73 91.59-18.9 91.4-18.12 91.2-17.33 90.81-16.85L90.81-16.85Q90.76-16.11 90.74-15.36 90.72-14.6 90.72-13.92L90.72-13.92Q90.72-12.84 90.84-11.38 90.96-9.91 91.5-8.94L91.5-8.94Q91.74-8.54 92.45-8.35 93.16-8.15 93.6-8.15L93.6-8.15Q94.13-8.15 94.69-8.33 95.26-8.5 95.5-8.94L95.5-8.94Q95.79-8.89 95.89-8.64 95.99-8.4 96.23-8.25L96.23-8.25Q99.02-9.42 101.8-10.5 104.58-11.57 107.27-12.99L107.27-12.99Q107.66-12.79 108.1-12.79L108.1-12.79Q108.59-12.79 109.07-12.89 109.56-12.99 110.05-12.99L110.05-12.99 110.39-12.99Q110.49-12.7 110.49-12.55ZM141.05-28.27L141.05-28.27Q140.76-27.83 140.71-27.29 140.66-26.76 140.66-26.32L140.66-26.32Q140.66-25.73 140.69-25.17 140.71-24.61 140.71-24.07L140.71-24.07 140.71-23.34Q140.62-23 140.42-22.66 140.22-22.31 140.13-21.97L140.13-21.97Q139.44-20.17 139.44-18.36L139.44-18.36 139.44-18.26Q139.2-17.68 138.98-17.19 138.76-16.7 138.56-16.24 138.37-15.77 138.27-15.26 138.17-14.75 138.22-14.06L138.22-14.06Q137.54-12.35 136.42-10.96 135.29-9.57 134.22-8.11L134.22-8.11Q133.19-7.71 132.34-7.08 131.48-6.45 130.7-5.66L130.7-5.66Q129.19-5.18 127.72-4.54 126.26-3.91 125.09-2.83L125.09-2.83Q124.16-2.73 123.23-2.54 122.3-2.34 121.43-1.95L121.43-1.95 120.84-1.95Q120.4-1.95 120.2-2.15L120.2-2.15Q119.57-1.81 118.89-1.68 118.2-1.56 117.52-1.56L117.52-1.56Q116.64-1.56 115.79-1.68 114.93-1.81 114.05-1.95L114.05-1.95Q113.56-2.64 112.69-3 111.81-3.37 111.12-3.71L111.12-3.71Q109.71-5.66 109.07-7.5 108.44-9.33 107.75-11.62L107.75-11.62Q107.85-12.3 108.1-12.96 108.34-13.62 108.29-14.4L108.29-14.4Q109.17-16.94 110.61-19.02 112.05-21.09 113.91-23L113.91-23Q113.91-23.29 114.03-23.49 114.15-23.68 114.05-24.07L114.05-24.07Q114.1-24.02 114.25-24.02L114.25-24.02Q114.64-24.02 114.74-24.24 114.83-24.46 114.78-24.76L114.78-24.76Q116.54-25.88 117.98-27.34 119.42-28.81 121.28-29.79L121.28-29.79Q121.43-30.22 121.77-30.52 122.11-30.81 122.3-31.2L122.3-31.2Q123.87-31.64 125.14-32.52 126.41-33.4 127.82-34.08L127.82-34.08Q128.6-34.52 129.31-34.69 130.02-34.86 130.85-35.06L130.85-35.06Q131.14-35.16 131.39-35.21 131.63-35.25 131.92-35.25L131.92-35.25Q132.8-35.25 133.63-34.94 134.46-34.62 135.34-34.62L135.34-34.62Q135.59-34.62 135.76-34.64 135.93-34.67 136.12-34.72L136.12-34.72Q136.95-33.69 138.22-33.15L138.22-33.15Q138.52-32.42 138.93-31.88 139.35-31.35 139.78-30.83 140.22-30.32 140.59-29.71 140.96-29.1 141.05-28.27ZM136.17-25.73L136.17-25.73Q136.17-25.98 136.12-26.17L136.12-26.17Q135.63-26.32 135.2-26.56 134.76-26.81 134.22-26.81L134.22-26.81Q133.88-26.81 133.53-26.66L133.53-26.66Q133.49-27 133.27-27.15 133.05-27.29 132.78-27.42 132.51-27.54 132.24-27.61 131.97-27.69 131.78-27.88L131.78-27.88Q131.63-28.27 131.46-28.69 131.29-29.1 130.85-29.3L130.85-29.3Q130.41-28.86 129.82-28.59 129.24-28.32 128.63-28.08 128.02-27.83 127.46-27.49 126.89-27.15 126.5-26.66L126.5-26.66 125.62-26.66Q125.33-26.12 124.79-25.85 124.26-25.59 123.87-25.1L123.87-25.1Q123.09-24.71 122.43-24.15 121.77-23.58 121.13-22.97 120.5-22.36 119.89-21.73 119.28-21.09 118.59-20.56L118.59-20.56Q117.96-19.19 117.2-18.19 116.45-17.19 115.79-16.16 115.13-15.14 114.66-13.94 114.2-12.74 114.2-10.99L114.2-10.99 114.2-10.5Q114.2-10.25 114.25-10.01L114.25-10.01Q114.88-9.33 115.3-8.54 115.71-7.76 116.69-7.42L116.69-7.42Q117.67-7.03 118.76-7.08 119.86-7.13 120.89-6.84L120.89-6.84Q123.23-7.28 125.41-8.28 127.58-9.28 129.53-10.69L129.53-10.69Q129.82-10.94 130.21-11.21 130.61-11.47 130.85-11.77L130.85-11.77Q131.09-12.01 131.26-12.3 131.44-12.6 131.63-12.84L131.63-12.84Q132.02-13.48 132.51-14.11 133-14.75 133.53-15.28L133.53-15.28Q133.78-16.36 134.17-17.36 134.56-18.36 134.95-19.34 135.34-20.31 135.61-21.34 135.88-22.36 135.88-23.49L135.88-23.49Q135.88-23.73 135.85-24.02 135.83-24.32 135.78-24.56L135.78-24.56Q136.17-25.1 136.17-25.73ZM206.87-8.5L206.87-8.5Q206.77-7.76 206.36-7.37 205.94-6.98 205.41-6.64L205.41-6.64Q205.16-6.69 204.94-6.71 204.72-6.74 204.48-6.74L204.48-6.74Q202.97-6.79 201.62-6.35 200.28-5.91 198.86-5.71L198.86-5.71Q198.38-5.62 197.96-5.64 197.55-5.66 197.11-5.57L197.11-5.57Q195.54-5.32 193.79-5.18 192.03-5.03 190.27-4.81 188.51-4.59 186.83-4.27 185.14-3.96 183.68-3.37L183.68-3.37Q183.53-3.47 183.39-3.59 183.24-3.71 183.04-3.71L183.04-3.71Q182.56-3.71 182.12-3.56 181.68-3.42 181.24-3.47L181.24-3.47Q180.75-3.17 180.19-3.05 179.63-2.93 179.06-2.86 178.5-2.78 177.97-2.64 177.43-2.49 176.94-2.1L176.94-2.1Q176.55-2.29 175.99-2.32 175.43-2.34 175.23-2.69L175.23-2.69Q174.11-2.15 172.86-2 171.62-1.86 170.35-1.9L170.35-1.9Q169.52-1.95 168.44-2.15 167.37-2.34 166.3-2.71 165.22-3.08 164.29-3.59 163.37-4.1 162.88-4.83L162.88-4.83Q162.54-5.32 162.39-5.91 162.24-6.49 161.71-6.79L161.71-6.79Q161.85-7.91 162.05-8.98 162.24-10.06 162.44-11.18L162.44-11.18Q163.42-12.01 164.29-12.94 165.17-13.87 165.95-14.89L165.95-14.89Q166.88-15.33 167.69-15.97 168.49-16.6 169.3-17.26 170.1-17.92 170.91-18.55 171.72-19.19 172.64-19.68L172.64-19.68Q172.79-20.02 173.06-20.24 173.33-20.46 173.62-20.68 173.91-20.9 174.16-21.17 174.4-21.44 174.5-21.83L174.5-21.83Q176.21-22.85 177.48-24.41 178.75-25.98 179.14-27.93L179.14-27.93Q178.31-28.61 177.26-28.83 176.21-29.05 175.09-29.15L175.09-29.15Q174.11-29.2 173.06-29.15 172.01-29.1 170.93-29.2L170.93-29.2Q169.86-28.86 168.71-28.76 167.57-28.66 166.44-28.59 165.32-28.52 164.22-28.3 163.12-28.08 162.1-27.49L162.1-27.49Q161.9-27.49 161.73-27.54 161.56-27.59 161.36-27.59L161.36-27.59Q159.8-27.64 158.43-26.98 157.07-26.32 155.75-25.68L155.75-25.68Q155.65-25.49 155.65-25.39L155.65-25.39Q155.65-25.1 155.77-24.83 155.9-24.56 155.9-24.27L155.9-24.27Q155.85-24.22 155.85-24.17 155.85-24.12 155.8-24.07L155.8-24.07Q155.75-23.83 155.68-23.63 155.6-23.44 155.51-23.19L155.51-23.19Q154.97-21.63 154.92-20.12L154.92-20.12Q154.87-18.85 154.92-17.63 154.97-16.41 154.92-15.14L154.92-15.14Q154.82-13.57 154.43-12.21L154.43-12.21Q154.68-11.04 154.87-9.74 155.07-8.45 155.36-7.18 155.65-5.91 156.07-4.71 156.48-3.52 157.17-2.44L157.17-2.44Q157.12-2.34 157.21-2.29 157.31-2.25 157.41-2.25L157.41-2.25 157.8-2.25Q158.04-2.25 158-2.05L158-2.05Q158.09-1.9 158.14-1.78 158.19-1.66 158.34-1.56L158.34-1.56Q158.43-1.42 158.34-1.17L158.34-1.17Q158.29-0.2 157.85 0.63 157.41 1.46 157.31 2.44L157.31 2.44Q156.73 2.59 156.24 2.59L156.24 2.59Q155.41 2.54 154.77 2.12 154.14 1.71 153.6 1.12 153.06 0.54 152.58-0.07 152.09-0.68 151.5-1.12L151.5-1.12Q151.16-2.49 150.84-4.15 150.52-5.81 149.79-6.98L149.79-6.98Q149.99-7.42 149.99-8.06L149.99-8.06Q150.04-9.03 149.82-9.99 149.6-10.94 149.69-11.91L149.69-11.91Q149.69-12.45 149.82-12.99 149.94-13.53 149.99-14.06L149.99-14.06Q150.04-14.89 149.82-15.67 149.6-16.46 149.65-17.29L149.65-17.29Q149.69-17.68 149.82-18.04 149.94-18.41 150.18-18.7L150.18-18.7Q149.94-19.29 150.04-19.82L150.04-19.82Q150.09-20.65 150.23-21.39 150.38-22.12 150.43-22.85L150.43-22.85Q150.43-23.24 150.38-23.61 150.33-23.97 150.23-24.32L150.23-24.32 149.79-24.46Q149.5-24.46 149.23-24.32 148.96-24.17 148.77-23.97 148.57-23.78 148.43-23.66 148.28-23.54 148.13-23.54L148.13-23.54Q148.03-23.54 147.91-23.56 147.79-23.58 147.69-23.58L147.69-23.58Q147.59-23.58 147.33-23.39 147.06-23.19 146.69-22.97 146.33-22.75 145.98-22.53 145.64-22.31 145.45-22.27L145.45-22.27Q144.91-22.36 144.59-22.63 144.27-22.9 144.01-23.17 143.74-23.44 143.44-23.66 143.15-23.88 142.71-23.83L142.71-23.83Q142.57-24.12 142.54-24.46 142.52-24.8 142.57-25.15L142.57-25.15 142.57-25.93Q142.91-26.56 143.47-26.98 144.03-27.39 144.67-27.69L144.67-27.69 145.93-28.27Q146.57-28.56 147.11-29L147.11-29 147.55-29Q148.43-28.96 149.08-29.35 149.74-29.74 150.33-30.25 150.92-30.76 151.53-31.3 152.14-31.84 152.87-32.13L152.87-32.13Q153.41-31.88 153.99-31.71 154.58-31.54 155.21-31.49L155.21-31.49Q155.85-31.49 156.53-31.69 157.21-31.88 157.6-32.42L157.6-32.42Q157.85-32.32 158.02-32.3 158.19-32.28 158.43-32.28L158.43-32.28Q159.17-32.23 159.9-32.5 160.63-32.76 161.32-33.15L161.32-33.15Q162.29-33.11 163.24-33.28 164.2-33.45 165.15-33.64 166.1-33.84 167.05-34.01 168.01-34.18 168.98-34.13L168.98-34.13Q170.59-34.08 172.16-34.42 173.72-34.77 175.33-34.67L175.33-34.67Q176.45-34.62 177.55-34.5 178.65-34.38 179.77-34.42L179.77-34.42Q180.41-34.13 180.92-33.91 181.43-33.69 182.21-33.79L182.21-33.79Q183.78-32.47 185.05-30.71L185.05-30.71 185.05-29.88Q185-28.76 184.66-27.69 184.31-26.61 183.85-25.56 183.39-24.51 182.85-23.51 182.31-22.51 181.82-21.53L181.82-21.53Q178.65-18.65 175.48-15.82 172.3-12.99 168.93-10.35L168.93-10.35Q168.84-9.86 168.66-9.47 168.49-9.08 168.44-8.64L168.44-8.64Q168.44-8.4 168.49-8.25L168.49-8.25Q168.84-8.15 169.1-7.89 169.37-7.62 169.27-7.18L169.27-7.18 169.71-7.18Q169.96-7.18 169.96-6.98L169.96-6.98 170.74-6.93Q172.59-6.84 174.45-7.03 176.31-7.23 178.19-7.47 180.07-7.71 181.92-7.93 183.78-8.15 185.63-8.2L185.63-8.2Q186.07-8.35 186.56-8.45 187.05-8.54 187.44-8.84L187.44-8.84 187.59-8.84Q187.93-8.84 188.1-8.64 188.27-8.45 188.61-8.4L188.61-8.4Q188.85-8.4 189.12-8.5 189.39-8.59 189.68-8.64L189.68-8.64Q190.37-8.84 191.13-8.89 191.88-8.94 192.61-9.03L192.61-9.03Q195.45-9.28 198.23-9.35 201.01-9.42 203.8-10.06L203.8-10.06Q204.04-9.72 204.48-9.59 204.92-9.47 205.41-9.35 205.9-9.23 206.31-9.08 206.73-8.94 206.87-8.5ZM265.02 12.65L265.02 12.65Q265.02 13.09 264.7 13.43 264.39 13.77 263.95 13.99 263.51 14.21 263.04 14.4 262.58 14.6 262.24 14.75L262.24 14.75Q261.7 14.45 261.14 14.36 260.58 14.26 260.14 13.87L260.14 13.87 259.8 13.87Q259.02 13.87 258.58 14.06L258.58 14.06Q257.89 13.82 257.45 13.35 257.01 12.89 256.62 12.38 256.23 11.87 255.84 11.38 255.45 10.89 254.87 10.55L254.87 10.55Q253.99 8.11 253.3 5.62 252.62 3.13 252.28 0.54L252.28 0.54Q252.38 0.29 252.42 0 252.47-0.29 252.47-0.54L252.47-0.54Q252.47-0.73 252.4-0.95 252.33-1.17 252.08-1.22L252.08-1.22Q252.33-1.61 252.4-2.12 252.47-2.64 252.47-3.08L252.47-3.08Q252.47-4.05 252.28-4.69L252.28-4.69Q252.57-4.93 252.52-5.49 252.47-6.05 252.77-6.3L252.77-6.3Q252.52-7.13 252.52-7.91L252.52-7.91Q252.52-8.98 252.79-10.01 253.06-11.04 253.06-12.11L253.06-12.11Q253.06-12.35 253.03-12.6 253.01-12.84 252.96-13.09L252.96-13.09Q253.21-13.87 253.42-14.67 253.64-15.48 253.64-16.31L253.64-16.31Q253.64-16.89 253.45-17.29L253.45-17.29Q254.08-19.53 254.35-21.75 254.62-23.97 254.87-26.27L254.87-26.27Q254.82-26.37 254.77-26.42 254.72-26.46 254.72-26.56L254.72-26.56Q254.72-26.81 254.99-26.95 255.26-27.1 255.21-27.49L255.21-27.49Q254.62-26.9 254.25-26.12 253.89-25.34 253.57-24.56 253.25-23.78 252.89-23.02 252.52-22.27 251.94-21.68L251.94-21.68Q251.89-21.14 251.62-20.65 251.35-20.17 251.35-19.58L251.35-19.58Q251.3-19.58 251.25-19.6 251.2-19.63 251.11-19.63L251.11-19.63Q250.91-19.63 250.84-19.38 250.76-19.14 250.52-19.24L250.52-19.24Q249.4-17.04 248.05-14.94 246.71-12.84 244.56-11.57L244.56-11.57Q244.17-11.72 243.83-11.72L243.83-11.72Q243.2-11.72 242.59-11.35 241.97-10.99 241.78-10.99L241.78-10.99Q241.29-10.99 240.58-11.5 239.88-12.01 239.14-12.06L239.14-12.06Q238.36-12.6 237.85-13.16 237.34-13.72 236.31-13.82L236.31-13.82Q235.63-14.84 234.97-15.77 234.31-16.7 233.7-17.6 233.09-18.51 232.62-19.53 232.16-20.56 231.92-21.83L231.92-21.83Q231.96-21.92 231.96-22.02L231.96-22.02Q231.96-22.31 231.7-22.27 231.43-22.22 231.43-22.56L231.43-22.56 231.43-22.9Q231.43-23.29 231.31-23.61 231.18-23.93 231.23-24.32L231.23-24.32Q230.89-24.85 230.7-25.44 230.5-26.03 230.01-26.46L230.01-26.46 230.01-26.9Q230.01-27.2 229.99-27.47 229.96-27.73 229.84-27.95 229.72-28.17 229.47-28.22L229.47-28.22Q229.43-29.98 228.77-31.81 228.11-33.64 227.57-35.35L227.57-35.35Q227.18-34.08 226.98-32.79 226.79-31.49 226.79-30.18L226.79-30.18 226.79-29.35Q226.79-28.96 226.89-28.56L226.89-28.56Q226.74-28.32 226.47-28.22 226.2-28.13 226.15-27.83L226.15-27.83Q226.11-27.59 226.13-27.34 226.15-27.1 226.11-26.86L226.11-26.86Q226.01-25.68 225.81-24.61L225.81-24.61Q225.52-23 225.13-21.36 224.74-19.73 224.74-18.02L224.74-18.02Q224.74-17.92 224.76-17.75 224.79-17.58 224.79-17.48L224.79-17.48Q224.01-16.8 223.96-15.77 223.91-14.75 223.71-13.82L223.71-13.82Q223.47-12.45 223.13-11.11 222.79-9.77 222.54-8.35L222.54-8.35Q222.39-7.57 222.3-6.81 222.2-6.05 222.1-5.27L222.1-5.27Q222.05-4.83 221.78-4.54 221.52-4.25 221.42-3.86L221.42-3.86Q221.37-3.52 221.39-3.1 221.42-2.69 221.42-2.34L221.42-2.34Q221.42-1.76 221.32-1.25 221.22-0.73 220.73-0.34L220.73-0.34Q220.83 0.93 221.17 1.83 221.52 2.73 221.96 3.86L221.96 3.86 223.18 3.86 223.18 4.05Q223.18 4.54 223.35 4.93 223.52 5.32 224.05 5.27L224.05 5.27Q224.01 5.47 224.01 5.76L224.01 5.76Q224.01 6.2 224.18 6.57 224.35 6.93 224.45 7.37L224.45 7.37Q223.47 8.98 222.35 9.77 221.22 10.55 219.27 10.55L219.27 10.55 218.49 10.55Q218.24 9.77 217.9 9.03 217.56 8.3 217.24 7.57 216.93 6.84 216.71 6.08 216.49 5.32 216.49 4.49L216.49 4.49Q216.49 4.3 216.54 4.13 216.58 3.96 216.58 3.76L216.58 3.76Q216.58 3.52 216.39 3.47 216.19 3.42 216.19 2.98L216.19 2.98Q216.19 2.64 216.17 2.34 216.14 2.05 216.14 1.71L216.14 1.71Q216.14 0.1 216.39-1.49 216.63-3.08 216.73-4.69L216.73-4.69Q216.97-4.93 216.97-5.32 216.97-5.71 217.22-5.96L217.22-5.96 217.22-6.3Q217.22-7.18 217.41-8.06 217.61-8.94 217.85-9.77 218.1-10.6 218.29-11.47 218.49-12.35 218.49-13.23L218.49-13.23 218.49-14.01Q218.49-14.36 218.81-14.33 219.12-14.31 219.17-14.7L219.17-14.7Q219.27-15.38 219.29-16.04 219.32-16.7 219.42-17.38L219.42-17.38Q219.66-18.7 219.95-20.04 220.25-21.39 220.25-22.75L220.25-22.75 220.25-22.9Q220.25-23.05 220.49-23.51 220.73-23.97 220.73-24.41L220.73-24.41Q220.73-24.76 220.59-25.05L220.59-25.05Q220.64-25 220.78-25L220.78-25Q220.98-25 221.05-25.12 221.13-25.24 221.27-25.34L221.27-25.34Q221.13-25.54 221.13-25.73L221.13-25.73Q221.13-25.98 221.2-26.2 221.27-26.42 221.27-26.66L221.27-26.66Q221.27-27 220.93-27.15L220.93-27.15Q221.52-28.22 221.78-29.44 222.05-30.66 222.17-31.93 222.3-33.2 222.39-34.5 222.49-35.79 222.83-36.96L222.83-36.96Q222.74-37.26 222.71-37.6 222.69-37.94 222.69-38.23L222.69-38.23Q222.69-38.43 222.64-38.65 222.59-38.87 222.69-39.06L222.69-39.06Q222.69-39.16 222.74-39.31L222.74-39.31 222.83-39.6Q222.93-39.94 222.96-40.31 222.98-40.67 223.03-41.06L223.03-41.06Q223.13-42.19 223.1-43.36 223.08-44.53 223.18-45.7L223.18-45.7Q223.03-45.9 222.88-46.02 222.74-46.14 222.69-46.39L222.69-46.39Q223.08-47.07 223.54-47.68 224.01-48.29 224.79-48.63L224.79-48.63Q224.93-48.1 225.57-48.1L225.57-48.1Q225.86-48.1 226.3-48.24 226.74-48.39 226.89-48.63L226.89-48.63Q227.72-48.34 228.57-48.36 229.43-48.39 230.16-47.95L230.16-47.95Q230.3-47.22 230.55-46.44 230.79-45.65 231.23-45.02L231.23-45.02Q231.33-44.38 231.43-43.48 231.53-42.58 231.62-41.63 231.72-40.67 231.92-39.82 232.11-38.96 232.45-38.48L232.45-38.48Q232.5-37.6 232.75-36.72 232.99-35.84 233.28-35.03 233.58-34.23 233.8-33.54 234.02-32.86 234.02-32.42L234.02-32.42Q234.02-32.03 233.89-31.91 233.77-31.79 233.67-31.49L233.67-31.49Q233.87-30.96 234.21-30.59 234.55-30.22 234.94-29.74L234.94-29.74Q235.68-26.95 236.85-24.32 238.02-21.68 239.68-19.24L239.68-19.24Q240.12-19.19 240.39-18.99 240.66-18.8 241.24-18.9L241.24-18.9 241.24-18.55Q241.24-18.07 241.44-17.87L241.44-17.87Q241.88-17.58 242.46-17.58L242.46-17.58Q243.1-17.58 243.46-17.94 243.83-18.31 244.17-18.8 244.51-19.29 244.86-19.73 245.2-20.17 245.78-20.31L245.78-20.31 245.78-20.41Q245.78-20.8 245.95-21.07 246.13-21.34 246.13-21.68L246.13-21.68Q246.66-22.07 246.96-22.66 247.25-23.24 247.49-23.85 247.74-24.46 248.05-25 248.37-25.54 248.91-25.88L248.91-25.88Q249.59-27.98 250.57-29.79 251.55-31.59 252.62-33.45L252.62-33.45Q252.62-33.59 252.57-33.76 252.52-33.94 252.52-34.08L252.52-34.08Q252.52-34.13 252.62-34.52L252.62-34.52Q252.86-35.01 253.06-35.45 253.25-35.89 253.4-36.43L253.4-36.43Q253.89-37.94 254.3-39.4 254.72-40.87 255.55-42.19L255.55-42.19 255.55-43.41Q256.43-45.17 256.79-47.12 257.16-49.07 257.7-50.93L257.7-50.93Q257.8-51.46 258.06-52.03 258.33-52.59 258.72-52.83L258.72-52.83Q258.58-53.13 258.58-53.42L258.58-53.42Q258.58-53.81 258.7-54.13 258.82-54.44 258.92-54.79L258.92-54.79Q258.77-55.13 258.77-55.66L258.77-55.66Q258.77-56.35 259.16-56.96 259.55-57.57 260.33-57.76L260.33-57.76Q260.82-57.62 261.16-57.28 261.51-56.93 261.82-56.57 262.14-56.2 262.51-55.98 262.87-55.76 263.46-55.86L263.46-55.86Q263.85-55.13 264-54.32 264.14-53.52 264.14-52.69L264.14-52.69Q264.14-51.56 263.95-50.37 263.75-49.17 263.8-47.95L263.8-47.95Q263.41-47.17 263.24-46.26 263.07-45.36 262.92-44.43 262.78-43.51 262.58-42.63 262.38-41.75 261.9-40.97L261.9-40.97Q261.75-38.77 261.58-36.67 261.41-34.57 261.07-32.47L261.07-32.47 260.63-29.69Q260.53-29.35 260.43-28.93 260.33-28.52 260.33-28.22L260.33-28.22Q260.33-27.93 260.38-27.61 260.43-27.29 260.68-27.15L260.68-27.15Q260.33-26.66 260.19-25.98 260.04-25.29 259.89-24.51L259.89-24.51 259.65-23Q259.55-22.27 259.26-21.68L259.26-21.68 259.26-21.14Q259.26-19.19 258.58-17.14L258.58-17.14 258.58-16.89Q258.58-16.65 258.55-16.48 258.53-16.31 258.53-16.06L258.53-16.06Q258.53-15.72 258.72-15.53L258.72-15.53Q258.33-14.26 257.99-12.92 257.65-11.57 257.5-10.16L257.5-10.16Q257.36-8.25 257.45-6.27 257.55-4.3 256.96-2.44L256.96-2.44Q257.26-1.56 257.36-0.54L257.36-0.54 257.55 1.51Q257.65 2.54 257.87 3.49 258.09 4.44 258.72 5.08L258.72 5.08Q258.77 5.18 258.77 5.37L258.77 5.37Q258.77 5.76 258.58 5.96L258.58 5.96Q258.67 6.45 258.92 6.79 259.16 7.13 259.41 7.45 259.65 7.76 259.82 8.15 259.99 8.54 259.99 9.13L259.99 9.13Q260.38 9.67 261.21 9.96 262.04 10.25 262.9 10.55 263.75 10.84 264.39 11.3 265.02 11.77 265.02 12.65ZM303.98-3.56L303.98-3.56Q303.84-2.88 303.37-2.47 302.91-2.05 302.27-1.81 301.64-1.56 300.98-1.49 300.32-1.42 299.78-1.42L299.78-1.42Q299.54-1.42 299.32-1.44 299.1-1.46 298.86-1.46L298.86-1.46Q298.61-1.46 298.61-1.22 298.61-0.98 298.37-0.88L298.37-0.88Q298.12-0.98 297.88-1.03 297.64-1.07 297.39-1.07L297.39-1.07Q297.05-1.07 296.73-1.03 296.42-0.98 296.12-0.98L296.12-0.98Q295.73-0.98 295.56-1.07 295.39-1.17 295.27-1.29 295.15-1.42 295.02-1.56 294.9-1.71 294.66-1.81L294.66-1.81Q294.32-1.95 294.1-1.86 293.88-1.76 293.44-2.15L293.44-2.15Q292.85-2.64 292.44-3.34 292.02-4.05 291.63-4.83 291.24-5.62 290.8-6.4 290.36-7.18 289.77-7.76L289.77-7.76 289.38-7.76Q288.51-7.76 288.16-7.03L288.16-7.03Q287.92-7.18 287.68-7.4 287.43-7.62 287.14-7.76L287.14-7.76Q286.02-7.42 284.79-7.18 283.57-6.93 282.35-6.93L282.35-6.93 281.67-6.93Q281.38-6.93 281.03-7.03L281.03-7.03Q280.55-6.84 280.16-6.57 279.77-6.3 279.28-6.3L279.28-6.3Q278.98-6.3 278.59-6.49L278.59-6.49Q278.3-6.49 278.32-6.25 278.35-6.01 278.01-6.01L278.01-6.01 277.57-6.01Q276.88-6.01 276.23-5.96 275.57-5.91 274.88-5.91L274.88-5.91Q273.95-5.91 272.98-6.15L272.98-6.15Q272.73-6.01 272.44-6.01L272.44-6.01Q272.25-5.91 272.15-5.69 272.05-5.47 271.95-5.3 271.86-5.13 271.68-5 271.51-4.88 271.22-4.93L271.22-4.93Q271.12-4.35 270.73-4 270.34-3.66 270.34-2.98L270.34-2.98Q269.8-2.69 269.46-2.25 269.12-1.81 268.78-1.32 268.44-0.83 268.07-0.39 267.7 0.05 267.17 0.29L267.17 0.29Q266.92 0.59 267.02 1.22L267.02 1.22Q266.48 1.66 265.7 2 264.92 2.34 264.24 2.34L264.24 2.34Q262.82 2.34 262.28 0.83L262.28 0.83Q262.28 0.34 262.36-0.22 262.43-0.78 262.58-1.29 262.72-1.81 263.02-2.22 263.31-2.64 263.85-2.83L263.85-2.83Q263.85-3.27 263.55-3.44 263.26-3.61 263.31-4.05L263.31-4.05Q264.63-4.69 265.61-5.71 266.58-6.74 267.39-7.89 268.19-9.03 269.02-10.21 269.85-11.38 270.88-12.3L270.88-12.3 270.88-13.33Q272.34-14.89 272.78-16.85L272.78-16.85Q273.32-16.94 273.49-17.33 273.66-17.72 273.66-18.26L273.66-18.26Q273.91-18.26 273.98-18.48 274.05-18.7 274.39-18.6L274.39-18.6Q274.83-19.78 275.37-20.75 275.91-21.73 276.44-22.73 276.98-23.73 277.4-24.8 277.81-25.88 278.01-27.2L278.01-27.2Q278.69-27.25 278.76-27.86 278.84-28.47 278.94-28.96L278.94-28.96Q279.67-29.64 280.03-30.57 280.4-31.49 280.69-32.5 280.99-33.5 281.35-34.5 281.72-35.5 282.4-36.28L282.4-36.28 282.4-36.43Q282.4-36.67 282.21-36.74 282.01-36.82 282.01-37.06L282.01-37.06Q282.06-37.11 282.06-37.16L282.06-37.16Q282.65-37.4 282.94-37.96 283.23-38.53 283.82-38.77L283.82-38.77Q284.84-37.94 285.62-37.77 286.41-37.6 287.68-37.5L287.68-37.5Q288.31-36.82 288.38-35.86 288.46-34.91 288.7-33.98L288.7-33.98Q289.09-32.42 289.56-30.93 290.02-29.44 290.26-27.88L290.26-27.88Q290.41-26.95 290.8-26.12 291.19-25.29 291.34-24.41L291.34-24.41Q291.44-23.73 291.34-22.88 291.24-22.02 291.53-21.39L291.53-21.39 291.87-20.61Q292.12-20.07 292.29-19.48 292.46-18.9 292.61-18.31L292.61-18.31Q293-16.85 293.31-15.16 293.63-13.48 294.32-12.11L294.32-12.11Q294.56-11.62 295.07-11.43 295.59-11.23 296.22-11.16 296.86-11.08 297.47-11.11 298.08-11.13 298.52-11.13L298.52-11.13 299-11.13Q299.3-11.13 299.59-11.04L299.59-11.04Q299.78-10.64 299.78-10.35L299.78-10.35Q299.78-9.77 299.39-9.42 299-9.08 299-8.64L299-8.64Q299-8.4 299.2-8.11L299.2-8.11Q299-8.15 298.61-8.15L298.61-8.15Q297.49-8.15 296.42-7.76L296.42-7.76Q296.81-6.93 297.47-6.37 298.12-5.81 298.86-5.32L298.86-5.32Q299.35-5.71 299.88-5.71L299.88-5.71Q300.47-5.71 300.98-5.44 301.49-5.18 302.08-5.18L302.08-5.18Q302.52-5.18 302.71-5.32L302.71-5.32Q303.11-4.88 303.35-4.42 303.59-3.96 303.98-3.56ZM288.7-11.38L288.7-11.38Q288.6-12.21 288.38-12.57 288.16-12.94 288.02-13.48L288.02-13.48Q287.82-14.16 287.75-14.94 287.68-15.72 287.53-16.46L287.53-16.46Q287.19-18.12 286.77-19.78 286.36-21.44 285.72-23L285.72-23Q285.92-23.29 285.92-23.54L285.92-23.54 285.92-23.68Q285.48-24.17 285.28-24.88 285.09-25.59 284.92-26.29 284.75-27 284.48-27.61 284.21-28.22 283.62-28.61L283.62-28.61Q283.48-28.32 283.48-27.93L283.48-27.93Q283.48-27.59 283.55-27.29 283.62-27 283.62-26.66L283.62-26.66Q283.13-26.42 282.91-25.9 282.69-25.39 282.21-25.1L282.21-25.1Q281.82-23.54 281.08-22.14 280.35-20.75 279.55-19.38 278.74-18.02 278.01-16.63 277.27-15.23 276.84-13.72L276.84-13.72Q276.2-13.28 275.98-12.6 275.76-11.91 275.76-11.23L275.76-11.23Q276.2-10.99 276.76-10.96 277.32-10.94 277.86-10.94 278.4-10.94 278.89-10.84 279.37-10.74 279.77-10.35L279.77-10.35Q280.4-10.55 281.16-10.62 281.91-10.69 282.4-11.04L282.4-11.04Q283.38-10.69 284.5-10.69L284.5-10.69Q285.09-10.69 285.65-10.79 286.21-10.89 286.75-11.04L286.75-11.04Q287.19-10.94 287.43-10.72 287.68-10.5 288.16-10.55L288.16-10.55Q288.41-10.74 288.46-10.96 288.51-11.18 288.7-11.38ZM336.4-24.07L336.4-24.07Q336.4-23.58 336.06-23.44 335.72-23.29 335.72-22.85L335.72-22.85Q335.72-22.71 335.82-22.61 335.92-22.51 335.92-22.31L335.92-22.31 335.92-22.12Q335.33-19.29 334.23-17.19 333.13-15.09 331.67-13.33 330.2-11.57 328.37-10.01 326.54-8.45 324.44-6.74L324.44-6.74Q323.85-6.25 323.24-5.76 322.63-5.27 322.1-4.74L322.1-4.74 321.02-3.71Q320.97-3.66 320.49-3.49 320-3.32 319.9-3.27L319.9-3.27Q319.22-2.98 318.46-2.59 317.7-2.2 317.17-1.61L317.17-1.61Q316.19-1.61 315.5-1.32 314.82-1.03 313.99-0.54L313.99-0.54Q313.75-0.54 313.58-0.63 313.41-0.73 313.21-0.83 313.01-0.93 312.79-0.95 312.58-0.98 312.23-0.88L312.23-0.88Q311.65-1.86 310.96-2.54 310.28-3.22 309.11-3.37L309.11-3.37Q308.96-4.2 308.42-4.66 307.89-5.13 307.35-5.66L307.35-5.66Q307.25-5.96 307.2-6.35 307.16-6.74 307.01-7.08 306.86-7.42 306.62-7.67 306.37-7.91 305.93-7.91L305.93-7.91Q305.89-8.2 306.18-8.2 306.47-8.2 306.47-8.45L306.47-8.45Q306.47-8.74 306.37-9.03 306.28-9.33 306.28-9.67L306.28-9.67Q306.28-9.91 306.33-10.11 306.37-10.3 306.47-10.55L306.47-10.55Q306.33-11.87 306.33-13.23L306.33-13.23Q306.33-15.87 306.69-18.43 307.06-21 307.06-23.63L307.06-23.63Q307.06-24.8 306.94-25.98 306.81-27.15 306.47-28.27L306.47-28.27Q305.35-28.03 304.23-27.71 303.1-27.39 302.13-26.86L302.13-26.86Q301.59-27.2 300.98-27.27 300.37-27.34 299.78-27.54L299.78-27.54Q299.44-28.22 299.44-28.96L299.44-28.96Q299.44-29.64 299.68-30.27L299.68-30.27 300.17-31.54Q301.34-31.79 302.49-32.28 303.64-32.76 304.81-33.15L304.81-33.15Q305.2-33.25 305.81-33.4 306.42-33.54 306.67-33.64L306.67-33.64Q307.01-33.79 307.13-34.2 307.25-34.62 307.5-34.91L307.5-34.91 308.33-34.91Q308.62-34.91 308.96-34.89 309.3-34.86 309.6-34.72L309.6-34.72Q311.35-35.16 313.11-35.28 314.87-35.4 316.73-35.64L316.73-35.64Q316.92-35.64 317.31-35.69L317.31-35.69 318.14-35.84Q318.58-35.94 318.95-36.01 319.31-36.08 319.46-36.08L319.46-36.08Q319.61-36.08 319.61-35.94L319.61-35.94 320.44-35.94Q322.54-35.94 324.54-35.4L324.54-35.4 328.54-34.33Q329.37-33.64 330.2-33.01 331.03-32.37 332.06-31.88L332.06-31.88Q332.3-31.1 332.81-30.64 333.33-30.18 333.96-29.64L333.96-29.64Q334.21-29 334.62-28.3 335.04-27.59 335.43-26.86 335.82-26.12 336.11-25.42 336.4-24.71 336.4-24.07ZM331.86-23.34L331.86-23.34Q331.33-24.46 330.84-25.68 330.35-26.9 329.62-27.88L329.62-27.88Q328.74-28.13 327.83-28.49 326.93-28.86 326.59-29.79L326.59-29.79Q326.49-29.74 326.25-29.74L326.25-29.74Q325.81-29.74 325.47-30.08 325.12-30.42 324.68-30.52L324.68-30.52Q324.29-30.57 323.63-30.66 322.98-30.76 322.24-30.81 321.51-30.86 320.8-30.91 320.09-30.96 319.7-30.96L319.7-30.96Q319.31-30.96 318.9-30.93 318.48-30.91 318.04-30.86L318.04-30.86Q317.65-30.86 317.56-30.74 317.46-30.62 317.17-30.52L317.17-30.52Q316.92-30.62 316.63-30.62L316.63-30.62 316.04-30.62Q315.02-30.62 314.02-30.3 313.01-29.98 312.04-29.44L312.04-29.44 312.04-29.25Q312.04-28.86 312.38-28.81 312.72-28.76 312.77-28.42L312.77-28.42Q312.53-28.42 312.38-28.39 312.23-28.37 312.23-28.03L312.23-28.03Q312.23-27.54 312.36-26.95 312.48-26.37 312.48-25.78L312.48-25.78Q312.48-25.34 312.38-24.76 312.28-24.17 311.89-23.83L311.89-23.83Q312.38-23.39 312.38-22.66L312.38-22.66Q312.38-22.17 312.18-21.63 311.99-21.09 311.7-20.7L311.7-20.7Q311.6-18.65 311.31-16.55 311.01-14.45 311.01-12.4L311.01-12.4Q311.01-11.38 311.13-10.4 311.26-9.42 311.55-8.45L311.55-8.45Q312.09-7.91 312.7-7.62 313.31-7.32 313.99-7.03L313.99-7.03 313.99-6.88Q313.99-6.74 313.8-6.59 313.6-6.45 313.6-6.2L313.6-6.2Q313.6-6.01 313.8-6.01L313.8-6.01Q315.85-6.59 317.65-7.42 319.46-8.25 321.02-9.67L321.02-9.67Q321.17-9.81 321.32-9.81L321.32-9.81Q321.41-9.81 321.58-9.77 321.75-9.72 321.9-9.67L321.9-9.67 321.85-9.86Q321.85-10.16 322.02-10.4 322.19-10.64 322.44-10.84L322.44-10.84 322.93-11.28Q323.17-11.52 323.32-11.77L323.32-11.77Q323.71-11.87 323.88-12.16 324.05-12.45 324.49-12.45L324.49-12.45Q324.59-12.99 325.03-13.26 325.47-13.53 325.56-14.06L325.56-14.06Q326.54-14.6 327.3-15.38 328.05-16.16 328.71-17.04 329.37-17.92 329.96-18.87 330.54-19.82 331.18-20.7L331.18-20.7 331.18-20.9Q331.18-21.68 331.45-22.17 331.72-22.66 331.86-23.34ZM369.46-31.05L369.46-31.05 369.46-30.86Q369.12-30.76 369.12-30.37L369.12-30.37Q368.58-30.13 367.99-30 367.41-29.88 366.87-29.64L366.87-29.64Q366.33-29.69 365.77-29.71 365.21-29.74 364.67-29.74L364.67-29.74Q363.21-29.74 361.74-29.64 360.28-29.54 358.81-29.64L358.81-29.64Q358.13-29.25 357.32-29.03 356.52-28.81 355.79-28.81L355.79-28.81Q355.2-28.81 354.76-28.96L354.76-28.96Q353.59-28.37 352.2-27.98 350.81-27.59 349.39-27.22 347.97-26.86 346.68-26.39 345.39-25.93 344.41-25.1L344.41-25.1Q344.31-24.41 344.26-23.75 344.21-23.1 344.21-22.46L344.21-22.46Q344.21-21.78 344.29-21.19 344.36-20.61 344.6-20.02L344.6-20.02Q344.85-19.92 345.17-19.87 345.48-19.82 345.73-19.82L345.73-19.82Q345.97-19.82 346.22-19.9 346.46-19.97 346.56-20.21L346.56-20.21Q347.29-20.31 348.02-20.29 348.75-20.26 349.49-20.26L349.49-20.26Q350.22-20.26 350.93-20.31 351.64-20.36 352.32-20.56L352.32-20.56Q353.1-20.75 353.86-20.8 354.61-20.85 355.35-20.9 356.08-20.95 356.86-21.07 357.64-21.19 358.47-21.58L358.47-21.58Q359.11-21.34 359.77-21.34 360.42-21.34 361.06-21.24L361.06-21.24Q361.4-21 361.62-20.7 361.84-20.41 361.84-20.02L361.84-20.02Q361.84-19.34 361.35-18.65 360.86-17.97 360.57-17.38L360.57-17.38 360.03-17.38Q358.86-17.38 357.76-17.07 356.66-16.75 355.57-16.33 354.47-15.92 353.37-15.6 352.27-15.28 351.1-15.28L351.1-15.28Q350.9-15.28 350.88-15.06 350.85-14.84 350.76-14.75L350.76-14.75Q350.51-14.79 350.02-14.79L350.02-14.79Q348.9-14.79 347.88-14.55 346.85-14.31 345.78-14.31L345.78-14.31Q345.48-14.31 345.19-14.33 344.9-14.36 344.6-14.4L344.6-14.4Q344.36-14.01 343.97-13.89 343.58-13.77 343.24-13.48L343.24-13.48Q343.09-13.04 343.07-12.4 343.04-11.77 343.02-11.11 342.99-10.45 342.89-9.86 342.8-9.28 342.5-8.94L342.5-8.94Q342.55-8.69 342.89-8.76 343.24-8.84 343.24-8.45L343.24-8.45Q343.24-8.01 343.14-7.52 343.04-7.03 343.04-6.54L343.04-6.54Q343.04-5.62 343.26-4.52 343.48-3.42 343.94-2.49 344.41-1.56 345.19-0.95 345.97-0.34 347.14-0.34L347.14-0.34Q347.92-0.34 348.61-0.63 349.29-0.93 349.73-1.61L349.73-1.61 349.98-1.66Q350.17-1.66 350.34-1.61 350.51-1.56 350.71-1.56L350.71-1.56Q351-1.56 351.46-1.93 351.93-2.29 352.49-2.78 353.05-3.27 353.64-3.74 354.22-4.2 354.76-4.39L354.76-4.39Q355.1-5.08 355.42-5.76 355.74-6.45 356.37-6.84L356.37-6.84 356.37-8.25Q356.86-8.79 357.42-9.23 357.98-9.67 358.28-10.35L358.28-10.35Q358.52-10.25 358.74-10.21 358.96-10.16 359.2-10.16L359.2-10.16Q359.45-10.16 359.72-10.21 359.98-10.25 360.23-10.35L360.23-10.35Q360.62-9.81 360.84-9.16 361.06-8.5 361.4-7.91L361.4-7.91Q360.96-7.03 360.38-5.81 359.79-4.59 359.11-3.37 358.42-2.15 357.67-1.05 356.91 0.05 356.18 0.63L356.18 0.63Q356.03 0.78 355.54 0.98L355.54 0.98Q355 1.37 354.56 1.73 354.13 2.1 353.73 2.59L353.73 2.59Q352.32 3.03 351.02 3.76 349.73 4.49 348.46 5.18L348.46 5.18Q347.88 5.03 347.19 5.03L347.19 5.03Q346.61 5.03 346.02 5.1 345.43 5.18 344.75 5.18L344.75 5.18Q344.56 4.93 344.19 4.86 343.82 4.79 343.92 4.35L343.92 4.35Q342.26 4.25 341.23 3.44 340.21 2.64 339.5 1.46 338.79 0.29 338.35-1.07 337.91-2.44 337.43-3.71L337.43-3.71 337.43-3.86Q337.43-4.1 337.62-4.15 337.82-4.2 337.82-4.44L337.82-4.44Q337.82-4.54 337.77-4.59L337.77-4.59Q337.62-5.13 337.52-5.52 337.43-5.91 337.43-6.45L337.43-6.45Q337.43-7.23 337.52-7.98 337.62-8.74 337.62-9.52L337.62-9.52Q337.62-10.3 337.43-10.89L337.43-10.89Q337.62-11.13 337.74-11.55 337.87-11.96 337.91-12.4 337.96-12.84 337.99-13.28 338.01-13.72 338.11-14.06L338.11-14.06Q337.91-14.6 337.77-15.01 337.62-15.43 337.62-16.02L337.62-16.02 337.62-16.36Q338.11-17.19 338.45-18.07 338.79-18.95 339.18-19.87L339.18-19.87 339.18-20.02Q339.18-21.44 339.09-22.85 338.99-24.27 338.99-25.68L338.99-25.68 338.99-26.61Q338.99-27.1 339.04-27.54L339.04-27.54Q339.43-27.73 339.62-28.08 339.82-28.42 340.21-28.61L340.21-28.61 341.82-28.61 342.11-29.1Q342.26-29.35 342.31-29.64L342.31-29.64Q342.85-29.79 343.36-30.05 343.87-30.32 344.31-30.62L344.31-30.62Q344.99-31.01 345.56-31.32 346.12-31.64 346.68-31.86 347.24-32.08 347.88-32.23 348.51-32.37 349.34-32.47L349.34-32.47Q349.73-32.47 349.85-32.62 349.98-32.76 350.22-32.96L350.22-32.96Q350.81-32.86 351.39-32.79 351.98-32.71 352.56-32.71L352.56-32.71Q353.73-32.71 354.76-33.15L354.76-33.15Q356.23-33.15 357.67-33.2 359.11-33.25 360.57-33.25L360.57-33.25Q361.84-33.25 363.11-33.15 364.38-33.06 365.6-32.81L365.6-32.81Q366.04-32.96 366.58-32.96L366.58-32.96Q367.16-32.96 367.77-32.84 368.38-32.71 368.97-32.81L368.97-32.81Q369.02-32.28 369.24-31.91 369.46-31.54 369.46-31.05Z" opacity="1" transform="matrix(1,0,0,1,0,0)" fill="#000000" class="undefined-text-0" data-fill-palette-color="primary" id="text-0"></path></svg></g></svg></g><g transform="matrix(1,0,0,1,58.663526399999995,58.035386178875896)"><svg viewBox="0 0 185.7678336 9.453430622430702" height="9.453430622430702" width="185.7678336"><g transform="matrix(1,0,0,1,0,0)"><svg width="185.7678336" viewBox="2.799999952316284 -35.5 703.4299926757812 35.79999923706055" height="9.453430622430702" data-palette-color="#374151"><path d="M10.05-35L10.05 0 2.8 0 2.8-35 10.05-35ZM16.4-35L37.3-35 37.3-29.25 23.65-29.25 23.65-21.9 36.1-21.9 36.1-16.05 23.65-16.05 23.65 0 16.4 0 16.4-35ZM71.24-35L78.79-35 68.04-14.75 68.04 0 60.79 0 60.79-14.75 50.49-35 58.14-35 64.49-21.3 71.24-35ZM94.59 0.25L94.59 0.25Q87.24 0.25 83.49-4.83 79.74-9.9 79.74-17.75 79.74-25.6 83.52-30.55 87.29-35.5 94.62-35.5 101.94-35.5 105.74-30.55 109.54-25.6 109.54-17.75L109.54-17.75Q109.54-7 102.99-2.25L102.99-2.25Q99.54 0.25 94.59 0.25ZM94.69-29.75L94.69-29.75Q92.04-29.75 90.24-27.9L90.24-27.9Q87.04-24.7 87.04-17.75L87.04-17.75Q87.04-12.5 88.99-9.03 90.94-5.55 94.72-5.55 98.49-5.55 100.39-9.08 102.29-12.6 102.29-17.68 102.29-22.75 100.27-26.25 98.24-29.75 94.69-29.75ZM137.14-3.03Q133.79 0.3 127.44 0.3 121.09 0.3 117.74-3.03 114.39-6.35 114.39-12.9L114.39-12.9 114.39-35 121.69-35 121.69-12.3Q121.69-9 123.16-7.23 124.64-5.45 127.39-5.45 130.14-5.45 131.66-7.23 133.19-9 133.19-12.3L133.19-12.3 133.19-35 140.49-35 140.49-12.9Q140.49-6.35 137.14-3.03ZM173.83 0.3L173.83 0.3Q166.18 0.3 162.11-4.53 158.03-9.35 158.03-17.6 158.03-25.85 162.36-30.65 166.68-35.45 174.38-35.45L174.38-35.45Q178.58-35.45 182.73-34L182.73-34 181.33-28.4Q178.28-29.7 174.13-29.7 169.98-29.7 167.63-26.55 165.28-23.4 165.28-17.85 165.28-12.3 167.48-8.88 169.68-5.45 173.68-5.45L173.68-5.45Q176.68-5.45 182.23-7.4L182.23-7.4 183.73-2.3Q179.18 0.3 173.83 0.3ZM204.43-35L215.03 0 207.83 0 205.33-8.55 194.78-8.55 192.33 0 185.38 0 195.88-35 204.43-35ZM196.23-14.3L203.98-14.3 200.13-28.7 196.23-14.3ZM245.08-35L245.08 0.05 237.48 0.05 225.63-21.5 225.63 0 218.23 0 218.23-35 225.63-35 237.83-12.4 237.83-35 245.08-35ZM277.37 0L270.17 0 270.17-29.15 262.12-29.15 262.12-35 285.32-35 285.32-29.15 277.37-29.15 277.37 0ZM315.97-35L315.97 0 308.72 0 308.72-15.3 297.12-15.3 297.12 0 289.87 0 289.87-35 297.12-35 297.12-21.05 308.72-21.05 308.72-35 315.97-35ZM329.57-35L329.57 0 322.32 0 322.32-35 329.57-35ZM362.76-35L362.76 0.05 355.17 0.05 343.31-21.5 343.31 0 335.92 0 335.92-35 343.31-35 355.51-12.4 355.51-35 362.76-35ZM384.16-21.7L395.06 0 386.86 0 379.11-16.15 377.11-13.9 377.11 0 369.86 0 369.86-35 377.06-35 377.06-22.2 386.66-35 395.26-35 384.16-21.7ZM417.51-35L417.51 0 410.26 0 410.26-35 417.51-35ZM436.56 0L429.36 0 429.36-29.15 421.31-29.15 421.31-35 444.5-35 444.5-29.15 436.56-29.15 436.56 0ZM488.45-35L495.9-35 487.6 0 480.25 0 477.15-15.3 472.9 0 465.8 0 457.65-35 465.45-35 469.55-9.25 473.7-25.5 480.5-25.5 484.15-9.25 488.45-35ZM519.95-5.75L519.95 0 499.1 0 499.1-35 519.95-35 519.95-29.25 506.35-29.25 506.35-21.9 518.7-21.9 518.7-16.05 506.35-16.05 506.35-5.75 519.95-5.75ZM570.19-35L570.19 0 562.94 0 562.94-21.7 556.69-8.2 550.39-8.2 544.14-21.65 544.14 0 536.94 0 536.94-35 544.64-35 553.59-16.25 562.94-35 570.19-35ZM590.69-35L601.29 0 594.09 0 591.59-8.55 581.04-8.55 578.59 0 571.64 0 582.14-35 590.69-35ZM582.49-14.3L590.24-14.3 586.39-28.7 582.49-14.3ZM618.79-21.7L629.69 0 621.49 0 613.74-16.15 611.74-13.9 611.74 0 604.49 0 604.49-35 611.69-35 611.69-22.2 621.29-35 629.89-35 618.79-21.7ZM653.98-5.75L653.98 0 633.13 0 633.13-35 653.98-35 653.98-29.25 640.38-29.25 640.38-21.9 652.73-21.9 652.73-16.05 640.38-16.05 640.38-5.75 653.98-5.75ZM679.23-35L679.23 0 671.98 0 671.98-35 679.23-35ZM698.28 0L691.08 0 691.08-29.15 683.03-29.15 683.03-35 706.23-35 706.23-29.15 698.28-29.15 698.28 0Z" opacity="1" transform="matrix(1,0,0,1,0,0)" fill="#000000" class="undefined-text-1" data-fill-palette-color="secondary" id="text-1"></path></svg></g></svg></g></svg></g></svg></g><g></g></svg></g></svg></g></svg></g><g><path d="M121.218 78.772A122.216 122.216 0 0 1 274.302 78.772L270.067 78.772A117.982 117.982 0 0 0 125.453 78.772L121.218 78.772M121.218 168.428A122.216 122.216 0 0 0 274.302 168.428L270.067 168.428A117.982 117.982 0 0 1 125.453 168.428L121.218 168.428" fill="#374151" stroke="transparent" data-fill-palette-color="tertiary"></path></g></svg></g><defs></defs></svg><rect width="395.52" height="247.2" fill="none" stroke="none" visibility="hidden"></rect></g></svg></g></svg>